<svg id="图层_1" data-name="图层 1" xmlns="http://www.w3.org/2000/svg" viewBox="0 0 1024 1024">
  <defs>
    <style>
      .cls-1 {
        opacity: 0;
      }

      .cls-2 {
        fill: #fff;
        opacity: 0;
      }

      .cls-3 {
        fill: currentColor;
      }

      .cls-4,
      .cls-5 {
        fill: currentColor;
      }

      .cls-5 {
        stroke: currentColor;
        stroke-linecap: round;
        stroke-linejoin: round;
        stroke-width: 40px;
      }
    </style>
  </defs>
  <g class="cls-1">
    <rect class="cls-2" x="0.5" y="0.5" width="1024" height="1024" />
    <path d="M1023,1V1023H1V1H1023m1-1H0V1024H1024V0Z" />
  </g>
  <path class="cls-3"
    d="M511.5,355A157.51,157.51,0,0,0,354,512.5h0A157.51,157.51,0,0,0,511.5,670h0A157.51,157.51,0,0,0,669,512.5h0A157.51,157.51,0,0,0,511.5,355Zm1,49A108.5,108.5,0,0,1,621,512.5h0A108.5,108.5,0,0,1,512.5,621h0A108.5,108.5,0,0,1,404,512.5h0A108.5,108.5,0,0,1,512.5,404Z" />
  <path class="cls-3"
    d="M896,512h-.18v-.92a25.91,25.91,0,0,0-25.91-25.91h-1A25.91,25.91,0,0,0,843,511.05V512h0v0h0c0,182.81-148.19,331-331,331h0c-182.81,0-331-148.19-331-331h0c0-182.81,148.19-331,331-331h0a332.52,332.52,0,0,1,61.6,5.74A24.8,24.8,0,0,0,584,189h.5c.85.19,1.69.37,2.53.57v-.74A25,25,0,0,0,609,164v-3.91a25,25,0,0,0-22.06-24.8A385.45,385.45,0,0,0,512,128h0c-212.08,0-384,171.92-384,384h0c0,212.08,171.92,384,384,384h0c212.08,0,384-171.92,384-384h0Z" />
  <path class="cls-4" d="M845,177" />
  <line class="cls-5" x1="677" y1="393" x2="718" y2="202" />
  <line class="cls-5" x1="717.52" y1="202" x2="798.31" y2="393" />
  <line class="cls-5" x1="803" y1="391" x2="842" y2="200" />
</svg>