<svg id="图层_1" data-name="图层 1" xmlns="http://www.w3.org/2000/svg" viewBox="0 0 1024 1024">
  <defs>
    <style>
      .cls-1 {
        opacity: 0;
      }

      .cls-2 {
        fill: #fff;
      }

      .cls-3 {
        fill: aqua;
      }
    </style>
  </defs>
  <g class="cls-1">
    <rect class="cls-2" x="0.5" y="0.5" width="1023" height="1023" />
    <path d="M1023,1V1023H1V1H1023m1-1H0V1024H1024V0Z" />
  </g>
  <path class="cls-3"
    d="M683.63,154.5H340.37C223.08,154.5,128,249.58,128,366.87V710.13c0,117.29,95.08,212.37,212.37,212.37H683.63C800.92,922.5,896,827.42,896,710.13V366.87C896,249.58,800.92,154.5,683.63,154.5ZM170,343.5c19.75-84.81,95.82-148,186.64-148H666.37c90.82,0,166.89,63.19,186.64,148Z" />
  <rect class="cls-3" x="311" y="101.5" width="49" height="148" rx="24.5" />
  <rect class="cls-3" x="663" y="101.5" width="49" height="148" rx="24.5" />
</svg>