<svg id="图层_1" data-name="图层 1" xmlns="http://www.w3.org/2000/svg" viewBox="0 0 1024 1024">
  <defs>
    <style>
      .cls-1 {
        fill: #fff;
        opacity: 0;
      }
    </style>
  </defs>
  <path class="cls-1"
    d="M779,206.64H746v27.24c0,7.53-6.41,13.63-14.32,13.63H706.63c-7.91,0-14.32-6.1-14.32-13.63V206.64H350.38v27.24c0,7.53-6.41,13.63-14.32,13.63H311c-7.91,0-14.32-6.1-14.32-13.63V206.64H262.23c-48.21,0-87.29,45.58-87.29,101.91V361.6H866.23V308.55C866.23,252.22,827.17,206.64,779,206.64Z" />
  <path class="cls-1"
    d="M0,0V1024H1024V0ZM905.35,794.13c0,56.43-48.09,102.17-107.41,102.17H244.76c-59.32,0-107.41-45.74-107.41-102.17V267.94c0-56.43,48.09-102.17,107.41-102.17h51.92V141.93c0-7.53,6.41-13.63,14.32-13.63h25.06c7.91,0,14.32,6.1,14.32,13.63v23.84H692.31V141.93c0-7.53,6.41-13.63,14.32-13.63H731.7c7.91,0,14.32,6.1,14.32,13.63v23.84h51.92c59.32,0,107.41,45.74,107.41,102.17Z" />
  <path class="cls-2"
    d="M797.94,165.77H746V141.93c0-7.53-6.41-13.63-14.32-13.63H706.63c-7.91,0-14.32,6.1-14.32,13.63v23.84H350.38V141.93c0-7.53-6.41-13.63-14.32-13.63H311c-7.91,0-14.32,6.1-14.32,13.63v23.84H244.76c-59.32,0-107.41,45.74-107.41,102.17V794.13c0,56.43,48.09,102.17,107.41,102.17H797.94c59.32,0,107.41-45.74,107.41-102.17V267.94C905.35,211.51,857.26,165.77,797.94,165.77ZM866.23,361.6H174.94V308.55c0-56.33,39.08-101.91,87.29-101.91h34.45v27.24c0,7.53,6.41,13.63,14.32,13.63h25.06c7.91,0,14.32-6.1,14.32-13.63V206.64H692.31v27.24c0,7.53,6.41,13.63,14.32,13.63H731.7c7.91,0,14.32-6.1,14.32-13.63V206.64H779c48.21,0,87.27,45.58,87.27,101.91Z" />
</svg>