<svg id="图层_1" data-name="图层 1" xmlns="http://www.w3.org/2000/svg" viewBox="0 0 1024 1024">
  <defs>
    <style>
      .cls-1 {
        opacity: 0;
      }

      .cls-2 {
        fill: #fff;
      }
    </style>
  </defs>
  <g class="cls-1">
    <rect class="cls-2" x="21" y="21" width="982" height="982" />
    <path d="M982,50V990H42V50H982m42-42H0V1032H1024V8Z" transform="translate(0 -8)" />
  </g>
  <path class="cls-3"
    d="M775,282.18H321.7l240.71-127c8.36-4.41,11.82-15.3,7.72-24.31l-1.44-3.17c-4.1-9-14.21-12.74-22.58-8.32L235.81,283.1C175.4,290.68,128.5,345.94,128.5,413V754.67c0,72.26,54.4,130.84,121.51,130.84H775c67.11,0,121.51-58.58,121.51-130.84V413C896.5,340.76,842.1,282.18,775,282.18ZM452.31,587.27c-30.45,39.21-67.15,69.36-103.7,99.73l-.21-.21-.2.21c-36.55-30.37-73.26-60.52-103.71-99.73-26.12-33.63-25.91-81.41,3.21-109.56,27.39-26.48,71.42-27.06,100.5,0l.2.21.21-.21c29.08-27.06,73.11-26.48,100.5,0C478.22,505.86,478.43,553.64,452.31,587.27Zm303.63,71.64H584.63c-11.83,0-21.41-11.64-21.41-26s9.58-26,21.41-26H755.94c11.83,0,21.42,11.65,21.42,26S767.77,658.91,755.94,658.91Zm0-130.54H584.63c-11.83,0-21.41-11.65-21.41-26s9.58-26,21.41-26H755.94c11.83,0,21.42,11.64,21.42,26S767.77,528.37,755.94,528.37Z"
    transform="translate(0 -8)" />
</svg>