<svg id="图层_1" data-name="图层 1" xmlns="http://www.w3.org/2000/svg" viewBox="0 0 1024 1024">
  <defs>
    <style>
      .cls-1 {
        opacity: 0;
      }

      .cls-2 {
        fill: #fff;
      }

      .cls-3 {
        fill: currentColor;
      }
    </style>
  </defs>
  <g class="cls-1">
    <rect class="cls-2" width="1024" height="1024" />
  </g>
  <path class="cls-3"
    d="M668.65,539.29a5.82,5.82,0,0,0,.82-10.85A368.72,368.72,0,0,0,596.25,503a187.28,187.28,0,0,0,96.94-164.11h0c0-103.46-83.87-187.34-187.34-187.34h0c-103.46,0-187.33,83.88-187.33,187.34h0A187.3,187.3,0,0,0,419,504.89C264.54,544.45,148.87,680.73,140.33,845.37a5.81,5.81,0,0,0,5.82,6.08H553.21a5.82,5.82,0,0,0,4.87-9A200.58,200.58,0,0,1,525.34,732.3h0C525.34,641.23,585.73,564.28,668.65,539.29Z" />
  <path class="cls-3"
    d="M907.1,536.69,868.65,442.4a16.61,16.61,0,0,0-3.71-5.52,16.21,16.21,0,0,0-5.3-3.56,16.41,16.41,0,0,0-21.49,8.8L745,664.48a77.65,77.65,0,0,0-36.09-30.75h0a78,78,0,0,0-102.1,41.82h0a78,78,0,0,0,41.83,102.09h0a78,78,0,0,0,102.09-41.82h0c.8-1.92,1.5-3.85,2.14-5.79a17.08,17.08,0,0,0,1.35-2.54l98.89-236.13,23.55,57.74a16.42,16.42,0,0,0,21.41,9h0A16.42,16.42,0,0,0,907.1,536.69Z" />
</svg>