<?xml version="1.0" encoding="utf-8"?>
<!-- Generator: Adobe Illustrator 24.3.0, SVG Export Plug-In . SVG Version: 6.00 Build 0)  -->
<svg version="1.1" id="图层_1" xmlns="http://www.w3.org/2000/svg" xmlns:xlink="http://www.w3.org/1999/xlink" x="0px" y="0px"
	 viewBox="0 0 512 512" style="enable-background:new 0 0 512 512;" xml:space="preserve">
<style type="text/css">
	.st0{fill:#ffffff;}
</style>
<g>
	<path class="st0" d="M419.24,259.34c-1.85-3.9-3.9-7.74-6.26-11.47c-8.03-12.74-17.85-25.75-21.31-40.65
		c-10.76-10.23-23.1-18.77-33.17-29.77c-2.5-2.73-0.96-6.23,1.75-7.21c-8.34-2.72-16.75-5.24-24.89-8.52
		c-2.8-1.13-5.65-2.35-8.4-3.75c-1.92,0.75-4.46,0.35-5.87-1.57c-0.49-0.67-1-1.36-1.5-2.03c-0.04,0.09-0.08,0.18-0.11,0.28
		c-1.1,3.06-4.41,3.91-6.66,2.46c0.07,0.12,0.14,0.25,0.22,0.38c1.44,2.4,0.35,4.68-1.48,5.83c38.55,23.3,64.34,65.69,64.34,114.14
		c0,73.54-59.43,133.16-132.74,133.16s-132.74-59.62-132.74-133.16c0-44.43,21.72-83.74,55.07-107.92
		c-0.28-0.98-0.12-2.11,0.71-3.24c4.1-5.6,7.2-11.78,10.27-17.97c-0.03-0.13-0.08-0.24-0.1-0.38c-1.01-5.98-4.55-10.76-8.58-15.11
		c-7.76-1.52-16.29-1.14-23.17-1.09c-0.76,0.01-1.42-0.15-1.98-0.42c-46.2,32.03-76.47,85.53-76.47,146.13
		c0,98.06,79.24,177.55,176.99,177.55s176.99-79.49,176.99-177.55C420.15,271.33,419.84,265.29,419.24,259.34z"/>
	<path class="st0" d="M287.41,144.29c-73.31,0-132.74,59.62-132.74,133.16c0,6.82,0.53,13.52,1.52,20.06
		c0.19,0.45,0.32,0.95,0.37,1.51c0.11,1.38,0.36,2.74,0.69,4.07c4.48,6.77,9.66,13.31,12.57,20.76c0.11,0.13,0.23,0.26,0.34,0.39
		c6.1,6.96,12.63,13.76,19.52,19.93c0.73,0.65,1.46,1.27,2.21,1.88c2.47,1.33,4.88,2.75,7.2,4.33c1.64,1.12,3.34,2.36,4.9,3.74
		c3.72,2.03,7.6,3.84,11.65,5.57c4.04,1.73,8.11,3.4,12.22,4.95c13.2,0.78,26.38,1.6,39.22-0.8c-39.06-9.22-68.14-44.41-68.14-86.41
		c0-49.03,39.62-88.78,88.5-88.78c48.85,0,88.46,39.71,88.5,88.71c2.06,0.17,4,1.59,4,4.27c-0.01,14.13-0.08,29.07-6.64,41.95
		c-2.8,5.5-6.56,9.68-10.88,13.12c-5.45,12.82-12.53,24.97-22.48,34.11c0.61-0.32,1.22-0.64,1.83-0.96
		c5.07-2.58,9.55,5.08,4.47,7.67c-9.09,4.62-17.66,10.17-26.73,14.82c-8.29,4.24-17.05,7.14-25.85,10.12
		c-8.57,2.9-17.52,5.55-26.49,6.57c6.61,1.02,13.37,1.56,20.27,1.56c73.31,0,132.74-59.62,132.74-133.16
		S360.72,144.29,287.41,144.29z"/>
	<path class="st0" d="M281.37,199.15c0.31,0.47,0.59,0.98,0.84,1.55c2.58,5.89-0.32,13.15-4.31,17.94c0.23,2.11,0.33,4.23,0.19,6.39
		c-0.08,1.22-0.54,2.19-1.21,2.91c0.11,1.04,0.19,2.09,0.27,3.14c8.82-0.67,15.64,1.01,14.79,8.19c-0.63,5.34-8.66,5.64-8.88,0.79
		c-0.95-0.03-2.28-0.21-3.42-0.19c0.73,2.48,1.47,4.96,2.27,7.42c0.52,0.48,0.94,1.11,1.22,1.92c1.45,4.3,3.06,8.55,4.5,12.85
		c0.77,2.31-0.32,4.04-1.97,4.88c1.12,3.9,1.75,8.02,1.75,12.28c0,24.51-19.81,44.39-44.25,44.39c-24.23,0-43.9-19.54-44.23-43.77
		c-1.23-0.65-2.11-1.9-2.05-3.74c0.04-1.38,0.24-2.7,0.54-3.99c-3.22-5.46-0.59-13.2,3.6-18.01c2.24-11.52,5.86-22.26,14.13-31.16
		c0.34-0.37,0.71-0.66,1.08-0.87c8.01-12.17,18.56-24.76,33.69-24.79c3.36-2.58,7.45-4.4,11.25-4.78c0.12-0.05,0.25-0.09,0.37-0.13
		c-5.92-1.25-12.06-1.92-18.36-1.92c-48.88,0-88.5,39.75-88.5,88.78S194.28,368,243.16,368s88.5-39.75,88.5-88.78
		C331.66,243.93,311.11,213.46,281.37,199.15z"/>
	<ellipse class="st0" cx="154.66" cy="149.61" rx="22.12" ry="22.19"/>
	<path class="st0" d="M359.41,74.11c-11.67-10.43-27-16.8-43.88-16.8c-36.66,0-66.37,29.81-66.37,66.58
		c0,32.6,23.37,59.72,54.21,65.45c0.47-1.36,1.23-2.55,2.3-3.56c1.04-1.12,2.27-1.92,3.69-2.38c1.37-0.72,2.84-1.05,4.42-0.99h1.8
		c2.07,0.01,4,0.53,5.79,1.57c0.77,0.6,1.55,1.2,2.32,1.8c1.11,1.12,1.94,2.39,2.51,3.82c5.6-0.91,10.96-2.53,16-4.75
		c-3.95-1.62-7.8-3.66-11.51-5.81c-1.35-0.1-2.7-0.2-4.04-0.33c-2.24-0.21-5-0.41-7.72-0.89c-2.01,1.96-6.41,1.88-7.86-1.66
		c-0.23-0.57-0.48-1.14-0.72-1.71c-1.4-0.03-2.79-0.69-3.68-2.1c-2.45-3.91-4.52-8-5.47-12.54c-0.67,0.14-1.36,0.24-2.08,0.27
		c-6.02,0.27-11.72-5.49-11.47-11.51c0.12-3.03,0.67-4.88,1.91-7.56c0.68-1.47,1.64-2.61,2.69-3.89c0.31-0.38,0.64-0.72,0.99-1.07
		c-0.21-2.19,0.08-4.44,0.96-6.44c-0.49-1.83-0.77-3.74-0.77-5.73c0-12.26,9.91-22.19,22.12-22.19c4.42,0,8.51,1.34,11.95,3.59
		c1.18-0.41,2.5-0.65,3.97-0.65c2.09,0,3.87,0.47,5.37,1.26c0.21,0.02,0.42,0.01,0.62,0.04c0.46-0.21,0.92-0.43,1.39-0.63
		c1.79-1.04,3.72-1.57,5.79-1.57c1.02,0.14,2.03,0.27,3.05,0.41c0,0,0.01,0,0.01,0c1.43-1.53,3.32-2.53,5.38-2.98
		c-0.29-0.99-0.46-2.01-0.46-3.04c0.02-4.61,0.28-9.21,0.3-13.81C352.92,79.7,355.61,75.98,359.41,74.11z"/>
	<ellipse class="st0" cx="341.42" cy="87.5" rx="22.12" ry="22.19"/>
	<path class="st0" d="M285.93,97.8l-29.17,7.84c0.05,0.13,0.13,0.23,0.17,0.36c0.72,1.37,1.05,2.85,0.99,4.43
		c0.28,2.09,0.3,4.2,0.3,6.31c0,2.58-0.92,4.9-2.4,6.91c0.46,1.45,0.92,2.91,1.47,4.33c1.11,2.62,1.47,5.19,0.82,8.04
		c-0.67,2.93-2.82,5.29-5.27,6.88c-0.18,0.12-0.4,0.18-0.59,0.28l34.85,130.47l42.74-11.49L285.93,97.8z"/>
</g>
</svg>
