<svg id="图层_1" data-name="图层 1" xmlns="http://www.w3.org/2000/svg" viewBox="0 0 1024 1024"><defs><style>.cls-1{opacity:0;}.cls-2{fill:#fff;}.cls-3{fill:#fbb03b;}</style></defs><g class="cls-1"><rect class="cls-2" x="0.5" y="0.5" width="1023" height="1023"/><path d="M1023,1V1023H1V1H1023m1-1H0V1024H1024V0Z"/></g><path class="cls-3" d="M475.31,151.94,622.7,354.17a12.44,12.44,0,0,0,10.37,5.1l250.15-6.77a12.42,12.42,0,0,1,10.4,19.7L746.83,574.87a12.4,12.4,0,0,0-1.65,11.44l83.74,235.81a12.42,12.42,0,0,1-15.52,16l-238.11-77a12.42,12.42,0,0,0-11.39,2L365.5,915.6a12.42,12.42,0,0,1-20-9.83l-.37-250.24a12.39,12.39,0,0,0-5.39-10.22L133.4,503.75a12.42,12.42,0,0,1,3.17-22.05L374.45,404a12.43,12.43,0,0,0,8.05-8.29l70.87-240A12.41,12.41,0,0,1,475.31,151.94Z"/><path class="cls-3" d="M768.65,107.58,797,165a3.17,3.17,0,0,0,2.39,1.74l63.36,9.21a3.18,3.18,0,0,1,1.76,5.42l-45.85,44.69a3.19,3.19,0,0,0-.91,2.81L828.56,292a3.17,3.17,0,0,1-4.61,3.35l-56.67-29.8a3.22,3.22,0,0,0-3,0l-56.67,29.8A3.18,3.18,0,0,1,703,292l10.82-63.11a3.16,3.16,0,0,0-.91-2.81L667.1,181.36a3.18,3.18,0,0,1,1.76-5.42l63.36-9.21a3.19,3.19,0,0,0,2.4-1.74L763,107.58A3.18,3.18,0,0,1,768.65,107.58Z"/><path class="cls-3" d="M207.54,697.92l14.22,28.82a1.6,1.6,0,0,0,1.2.87l31.8,4.62a1.59,1.59,0,0,1,.88,2.72l-23,22.43a1.63,1.63,0,0,0-.46,1.41l5.44,31.67a1.6,1.6,0,0,1-2.32,1.68l-28.44-14.95a1.55,1.55,0,0,0-1.48,0l-28.45,14.95a1.59,1.59,0,0,1-2.31-1.68L180,758.79a1.57,1.57,0,0,0-.46-1.41l-23-22.43a1.6,1.6,0,0,1,.89-2.72l31.8-4.62a1.6,1.6,0,0,0,1.2-.87l14.22-28.82A1.6,1.6,0,0,1,207.54,697.92Z"/></svg>