<svg id="图层_1" data-name="图层 1" xmlns="http://www.w3.org/2000/svg" viewBox="0 0 1024 1024">
  <defs>
    <style>
      .cls-1 {
        fill: aqua;
        fill-opacity: 0;
        opacity: 0;
      }
    </style>
  </defs>
  <rect class="cls-1" width="1024" height="1024" />
  <path
    d="M745.52,128h-467A150.48,150.48,0,0,0,128,278.44v467A150.48,150.48,0,0,0,278.44,896h467A150.48,150.48,0,0,0,896,745.56v-467A150.48,150.48,0,0,0,745.56,128ZM252,356.61A23.61,23.61,0,0,1,275.61,333H550.39A23.61,23.61,0,0,1,574,356.61v6.78A23.61,23.61,0,0,1,550.39,387H275.61A23.61,23.61,0,0,1,252,363.39ZM452,672.39A18.61,18.61,0,0,1,433.39,691H270.61A18.61,18.61,0,0,1,252,672.39V655.61A18.61,18.61,0,0,1,270.61,637H433.39A18.61,18.61,0,0,1,452,655.61ZM274,534a22,22,0,0,1-22-22V502a22,22,0,0,1,22-22H509a22,22,0,0,1,22,22h0v10a22,22,0,0,1-22,22ZM794,430.68h-.43a145.65,145.65,0,0,1-103.63-43.12V649.73h0v2.6h-.06A89,89,0,0,1,601,738.7h0a89,89,0,0,1-89-89h0a89,89,0,0,1,89-89h0a88.46,88.46,0,0,1,41.1,10.07V285H690v12.37a104.8,104.8,0,0,0,104,92.42h0Z" />
</svg>