<svg id="图层_1" data-name="图层 1" xmlns="http://www.w3.org/2000/svg" viewBox="0 0 1024 1024">
  <defs>
    <style>
      .cls-1 {
        opacity: 0;
        fill: aqua;
      }
      .cls-2 {
        fill: currentColor;
      }
    </style>
  </defs>
  <rect class="cls-1" width="1024" height="1024" />
  <path class="cls-2"
    d="M745.52,129h-467A150.48,150.48,0,0,0,128,279.48v467A150.48,150.48,0,0,0,278.48,897h467A150.48,150.48,0,0,0,896,746.52v-467A150.48,150.48,0,0,0,745.52,129ZM252,357.61A23.61,23.61,0,0,1,275.61,334H550.39A23.61,23.61,0,0,1,574,357.61v6.78A23.61,23.61,0,0,1,550.39,388H275.61A23.61,23.61,0,0,1,252,364.39ZM452,673.39A18.61,18.61,0,0,1,433.39,692H270.61A18.61,18.61,0,0,1,252,673.39V656.61A18.61,18.61,0,0,1,270.61,638H433.39A18.61,18.61,0,0,1,452,656.61ZM274,535a22,22,0,0,1-22-22V503a22,22,0,0,1,22-22H509a22,22,0,0,1,22,22v10a22,22,0,0,1-22,22ZM794,431.68h-.43a145.65,145.65,0,0,1-103.63-43.12V650.73h0v2.6h-.06A89,89,0,0,1,601,739.7h0a89,89,0,0,1-89-89h0a89,89,0,0,1,89-89h0a88.52,88.52,0,0,1,41.1,10.07V286h47.87v12.37A104.8,104.8,0,0,0,794,390.79h0Z"
    transform="translate(0 -1)" />
</svg>