<svg id="图层_1" data-name="图层 1" xmlns="http://www.w3.org/2000/svg" viewBox="0 0 1024 1024">
  <defs>
    <style>
      .cls-1 {
        opacity: 0;
      }

      .cls-2 {
        fill: #fff;
      }
    </style>
  </defs>
  <g class="cls-1">
    <rect class="cls-2" x="0.5" y="0.5" width="1023" height="1023" />
    <path d="M1023,1V1023H1V1H1023m1-1H0V1024H1024V0Z" />
  </g>
  <path class="cls-3"
    d="M336,828a30,30,0,0,1-30-30h0a30,30,0,0,1,30-30H789V244.85A116.84,116.84,0,0,0,672.15,128H350.85A116.84,116.84,0,0,0,234,244.85v534.3A116.84,116.84,0,0,0,350.85,896h321.3a116.84,116.84,0,0,0,106.17-68ZM601,389.35a24,24,0,0,1,48,0V498.68a24,24,0,0,1-48,0ZM487,298a24,24,0,0,1,48,0V590a24,24,0,0,1-48,0ZM374,389.69a24,24,0,0,1,48,0V499a24,24,0,0,1-48,0Z" />
</svg>